<svg id="Gruppe_1328" data-name="Gruppe 1328" xmlns="http://www.w3.org/2000/svg" xmlns:xlink="http://www.w3.org/1999/xlink" width="592.194" height="449.338" viewBox="0 0 592.194 449.338">
  <defs>
    <clipPath id="clip-path">
      <rect id="Rechteck_615" data-name="Rechteck 615" width="592.194" height="449.338" fill="none"/>
    </clipPath>
  </defs>
  <g id="Gruppe_1332" data-name="Gruppe 1332" clip-path="url(#clip-path)">
    <path id="Pfad_1429" data-name="Pfad 1429" d="M475.653,325.815q12.9,2.124,25.794,4.285c7.832,1.319,16.411,3.1,21.423,10.035a8.465,8.465,0,0,1,1.788,4.353c.3,5.026-5.35,7.337-9.759,8.039l-26.576,4.235c-17.875,0-35.9,7.152-53.807,8.094-20.15,1.06-40.382.226-60.547.9A603.421,603.421,0,0,0,271.255,378.1c-14.6,3.042-29.137,6.628-43.9,8.413-33.955,4.111-68.228-1.4-101.794-8.519q-49.367-10.476-97.844-25.61c-6.226-1.944-18.928-7.84-16.624-17.538,2.379-10.01,19.635-9.178,25.916-9.206,16.394-.072,31.95-7.469,47.448-13.512,56.3-21.942,113.306-25.506,171.825-22.48,40.977,2.119,81.3,11.2,121.616,19.115,32.5,6.384,65.122,11.679,97.756,17.053" fill="#020331"/>
    <path id="Pfad_1430" data-name="Pfad 1430" d="M32.866,276.194c-10.968-1.65-24.359-2.36-30.82,6.573-1.922,2.657-2.877,6.4-1.125,9.169C2.229,294,4.684,295.018,7,295.844c8.593,3.062,17.607,5.277,26.738,5.22,6.691-.042,42.882-5.367,44.191-13.581,1.316-8.265-37.828-10.2-45.066-11.289" fill="#020331"/>
    <path id="Pfad_1431" data-name="Pfad 1431" d="M332.832,327.656c-.113,7.7-5.146,14.6-11.323,19.2s-13.486,7.346-20.473,10.572c-19.48,8.988-33.382,20.049-54.821,23.45-22.593,3.583-45.9,1.51-68.266-2.645-27.817-5.167-55.393-11.545-83.182-16.844-15.137-2.885-30.446-4.786-45.555-7.8-8.8-1.754-28.1-2.4-35.682-11.033a12.426,12.426,0,0,1-3.141-8.544c.059-13.592,23.852-17.734,33.994-17.966,20.52-.466,40.068-3.576,59.347-7.715,15.751-3.382,31.231-7.581,46.624-12.35,5.619-1.741,12.953-3.586,16.374-9.014,1.826-2.9,1.246-7.162,4.062-9.43,2.756-2.219,7.993-2.476,11.337-2.788,9.683-.9,19.693-1.511,28.907,1.6,5.922,2,11.251,5.451,17.094,7.667,10.6,4.02,22.831,4.375,33.955,6.245q1.459.244,2.917.5,1.191.21,2.376.431c.36.066.722.135,1.082.2.656.122,1.31.247,1.963.379q1.13.215,2.251.447,1.637.327,3.264.678,1.125.238,2.241.488,1.3.285,2.582.581,3.217.736,6.362,1.529l1.257.319c.831.212,1.663.428,2.488.647s1.648.441,2.464.663l1.219.337q.938.258,1.866.525c.428.119.854.244,1.279.366.056.016.115.035.172.05.1.028.2.06.3.088q3.582,1.045,7.018,2.144a65.745,65.745,0,0,1,14.046,6.009,35.949,35.949,0,0,1,4.442,3.145c.6.5,1.191,1.034,1.754,1.591,4.408,4.324,7.49,10.144,7.406,16.278" fill="#e74a3f"/>
    <path id="Pfad_1432" data-name="Pfad 1432" d="M332.832,327.656c-.113,7.7-5.146,14.6-11.323,19.2s-13.486,7.346-20.473,10.572c-19.48,8.988-33.382,20.049-54.821,23.45-22.593,3.583-45.9,1.51-68.266-2.645-27.817-5.167-55.393-11.545-83.182-16.844-15.137-2.885-30.446-4.786-45.555-7.8-8.8-1.754-28.1-2.4-35.682-11.033,8.019,4.105,17.016,5.815,25.873,7.475L89,359.321c24.543,4.6,49.1,9.2,73.8,12.9,17.26,2.582,34.591,4.72,51.985,6.152,9.435.775,19,1.335,28.305-.428,12.029-2.282,22.915-7.832,33.351-14a33.228,33.228,0,0,0,5.927-4.108,11.16,11.16,0,0,0,3.586-6.125c.238-1.411-.054-3.13-1.33-3.777a4.015,4.015,0,0,0-1.908-.3c-2.93.051-5.869.391-8.8.535-8.791.433-17.967,1.223-26.67-.54-8.09-1.639-16.1-6.111-23.13-10.44-2.238-1.379-4.5-2.907-5.876-5.147-2.136-3.476-1.677-8.085.229-11.692s5.053-6.386,8.275-8.888a104.007,104.007,0,0,1,34.578-17.645c10.687-3.114,21.463-1.571,32.008,1.3l1.219.337q.933.258,1.866.525c.428.119.854.244,1.279.366.056.016.115.035.172.05.1.028.2.06.3.088q3.582,1.045,7.018,2.144a65.745,65.745,0,0,1,14.046,6.009,35.949,35.949,0,0,1,4.442,3.145c.6.5,1.191,1.034,1.754,1.591,4.408,4.324,7.49,10.144,7.406,16.278" fill="#a9372f"/>
    <path id="Pfad_1433" data-name="Pfad 1433" d="M48.936,318.563c-10.327.977-21.7,2.08-28.864,9.582-2.324,2.433-4.106,5.758-3.5,9.066,1.1,5.97,8.53,7.932,14.552,8.7q52.488,6.693,104.279,17.844c-.335-4.727-6.5-6.114-11.218-6.544a101.761,101.761,0,0,1-28.848-6.984c-4.411-1.784-8.828-3.976-11.929-7.585s-4.608-8.941-2.586-13.248c1.477-3.146,4.507-5.235,7.476-7.041a118.664,118.664,0,0,1,27.776-12.391c9.456-2.861,19.023-3.5,28.465-6.117,6.74-1.869,13.745-3.88,18.935-8.568a304.775,304.775,0,0,1-29.371,8.531c-9.419,2.23-19.685,2.844-28.838,5.719-18.223,5.725-37.359,7.241-56.334,9.036" fill="#f9d0cd"/>
    <path id="Pfad_1434" data-name="Pfad 1434" d="M28.252,276.059c-9.428-1.431-20.939-2.048-26.493,5.7-1.652,2.3-2.473,5.553-.968,7.956,1.126,1.8,3.236,2.674,5.229,3.391,7.386,2.657,15.135,4.579,22.984,4.53,5.752-.037,36.862-4.658,37.987-11.785,1.132-7.172-32.517-8.851-38.739-9.8" fill="#e74a3f"/>
    <path id="Pfad_1435" data-name="Pfad 1435" d="M1.183,288.4a1.986,1.986,0,0,0,1.281,1.3l10.87,3.691c2.455.834,4.966,1.672,7.5,2.294a26.211,26.211,0,0,0,11.224.64c-5.957,1.143-20.006-2.87-19.357-10.988a13.668,13.668,0,0,1,2.154-5.509l1.433-2.508a36.973,36.973,0,0,0-9.9,3.044,11.417,11.417,0,0,0-3.974,2.741c-.882,1.041-1.8,3.64-1.239,5.291" fill="#f9d0cd"/>
    <path id="Pfad_1436" data-name="Pfad 1436" d="M293.4,402.078c-15.909-3.134-35.333-4.485-44.7,12.49-2.786,5.048-4.172,12.161-1.631,17.422,1.9,3.931,5.459,5.857,8.822,7.428,12.464,5.817,25.538,10.026,38.783,9.918,9.7-.08,62.2-10.2,64.1-25.806,1.91-15.7-54.868-19.384-65.367-21.452" fill="#020331"/>
    <path id="Pfad_1437" data-name="Pfad 1437" d="M286.707,401.823c-13.676-2.72-30.372-3.892-38.428,10.839-2.4,4.379-3.587,10.552-1.4,15.117,1.632,3.411,4.692,5.083,7.584,6.445,10.714,5.048,21.953,8.7,33.338,8.607,8.343-.069,53.467-8.85,55.1-22.393,1.642-13.628-47.165-16.82-56.19-18.615" fill="#e74a3f"/>
    <path id="Pfad_1438" data-name="Pfad 1438" d="M247.445,425.276a3.484,3.484,0,0,0,1.859,2.478l15.765,7.013a109.557,109.557,0,0,0,10.884,4.359c5.393,1.732,10.866,2.578,16.28,1.217-8.64,2.173-29.018-5.453-28.077-20.88.231-3.767,1.7-7.187,3.125-10.468q1.038-2.383,2.077-4.766a44.911,44.911,0,0,0-14.351,5.784,17.276,17.276,0,0,0-5.765,5.209c-1.279,1.977-2.617,6.917-1.8,10.054" fill="#f9d0cd"/>
    <path id="Pfad_1439" data-name="Pfad 1439" d="M112.714,258.938c-5.716-.594-12.7-.85-16.063,2.367-1,.956-1.5,2.3-.586,3.3a6.524,6.524,0,0,0,3.17,1.407,57.5,57.5,0,0,0,13.935,1.88c3.487-.015,22.349-1.933,23.031-4.89.687-2.976-19.715-3.673-23.487-4.065" fill="#020331"/>
    <path id="Pfad_1440" data-name="Pfad 1440" d="M110.31,258.89c-4.914-.515-10.913-.737-13.808,2.054-.861.83-1.289,2-.5,2.864a5.6,5.6,0,0,0,2.725,1.222,49.02,49.02,0,0,0,11.979,1.63c3-.013,19.212-1.677,19.8-4.243.59-2.582-16.947-3.187-20.19-3.527" fill="#e74a3f"/>
    <path id="Pfad_1441" data-name="Pfad 1441" d="M96.2,263.334a.929.929,0,0,0,.668.47l5.665,1.328c1.279.3,2.588.6,3.91.826a19.613,19.613,0,0,0,5.85.231c-3.1.412-10.427-1.033-10.088-3.957a4.184,4.184,0,0,1,1.122-1.983l.747-.9a25.967,25.967,0,0,0-5.157,1.1,6.481,6.481,0,0,0-2.071.987,1.864,1.864,0,0,0-.646,1.905" fill="#f9d0cd"/>
    <path id="Pfad_1442" data-name="Pfad 1442" d="M170.017,288.138q.159.522.337,1.024c2.059,5.783,5.571,9.88,6.123,16.38.293,3.456.049,7.133,1.732,10.165A13.349,13.349,0,0,0,183.8,320.7c9.955,5.323,22.267,3.947,32.7,8.265,3.8,1.573,7.251,3.863,10.909,5.74a55.665,55.665,0,0,0,48.54.727c6.167-2.934,12.049-7.513,18.793-9.065,8.7-2,15.309-3.865,18.8-13.182,1.526-4.072,2-8.45,2.458-12.775,1.381-13.005,5.41-26.948,1.689-39.865s-14.047-22.935-25.371-30.158c-30.779-19.63-81.817-21.365-108.941,5.887a51.061,51.061,0,0,0-14.553,32.1c-.488,5.973-.6,13.827,1.2,19.769" fill="#e74a3f"/>
    <path id="Pfad_1443" data-name="Pfad 1443" d="M172.638,282.493c1.329,4.852,2.327,10.279,5.906,13.953a3.5,3.5,0,0,0,1.647,1.1,1.348,1.348,0,0,0,1.616-.827,2.182,2.182,0,0,0-.43-1.492c-3.2-5.766-1.814-17.5-.589-23.882,1.348-7.02,4.842-13.541,12.09-15.749,3.639-1.109,7.534-.932,11.328-.64A207.158,207.158,0,0,1,240.4,261.01c2.8.729,5.733,1.52,8.546.842-3.074-3.577-8.192-4.476-12.894-4.851-9.522-.76-19.018-3.341-28.194-5.991-8.253-2.383-16.534-5.036-25.11-5.54-7.043-.414-6.44,2.9-8.255,8.257-3.113,9.2-4.454,19.269-1.852,28.766" fill="#f9d0cd"/>
    <path id="Pfad_1444" data-name="Pfad 1444" d="M314.008,300.852c-1.445,6.665-3.33,14-9.015,17.767-2.9,1.924-6.416,2.624-9.755,3.618-10.322,3.073-19.454,9.05-29.444,12.954-4.2,1.641-7.611,3.346-12.1,3.072-5.717-.35-11.755-2.234-17.359-3.408-5.143-1.078-10.747-2.515-13.8-6.792a26.027,26.027,0,0,0,22.579,4.871c11.205-2.927,19.157-13.13,23.452-23.885,2.692-6.742,3.959-13.673,5.539-20.685,1.32-5.858,5.874-10.633,11.008-13.477a15.962,15.962,0,0,1,4.251-1.719,21.528,21.528,0,0,1,4.875-.314c6.266.073,13.053-.227,19.2,1.208,3.4.795,4.34,2.9,4.469,6.285.268,6.978-2.44,13.781-3.9,20.505" fill="#a9372f"/>
    <path id="Pfad_1445" data-name="Pfad 1445" d="M205.125,323.053c.4-.9-.712-1.7-1.629-2.066l-16.573-6.578c-8.278-3.285-11.64-8.309-15.879-15.692a33.735,33.735,0,0,0,7.76,13.332c2.5,2.567,24.665,14.7,26.321,11" fill="#a9372f"/>
    <path id="Pfad_1446" data-name="Pfad 1446" d="M356.229,97.25c-6.912,39.49-11.373,67.085-19.251,102.67-.041.191-.081.388-.125.585-5.352,24.953-18.485,85.241-18.485,85.241l-40.953-13.13-.541-.178-80.427-26.754-18.029-3.9s48.393-62.549,51.048-66.06c8.937-11.829,17.725-23.771,26.194-35.938C289.266,91.5,348.826,19,364.354,3.139c2.119-2.166,3.42-3.276,3.72-3.126a.354.354,0,0,1,.144.157c2.032,3.542-5.4,59.416-11.989,97.08" fill="#f2b989"/>
    <path id="Pfad_1447" data-name="Pfad 1447" d="M356.229,97.25c-6.912,39.49-11.373,67.085-19.251,102.67-.041.191-.081.388-.125.585-5.352,24.953-18.485,85.241-18.485,85.241l-40.953-13.13-.541-.178c28.351-79.6,61.023-175.479,86.567-254.49.994-3.079,2.332-11.448,4.777-17.778,2.032,3.542-5.4,59.416-11.989,97.08" fill="#eaae81"/>
    <path id="Pfad_1448" data-name="Pfad 1448" d="M364.354,3.139c-2.823,8.975-13.255,19.7-17.025,24.7-22.562,29.9-43.692,60.851-64.812,91.785L255.488,159.21q-29.519,43.24-59.041,86.474l-18.029-3.9s48.393-62.549,51.048-66.059c8.937-11.83,17.725-23.772,26.194-35.939C289.266,91.494,348.826,19,364.354,3.139" fill="#fcc69d"/>
    <path id="Pfad_1449" data-name="Pfad 1449" d="M288.144,159.02l0,0,.014-.01c.142-.11-.347.217-.017.012" fill="#dba179"/>
    <path id="Pfad_1450" data-name="Pfad 1450" d="M329.448,108.63a1.4,1.4,0,0,1,.122-.112c.073-.082.077-.09-.122.112" fill="#dba179"/>
    <path id="Pfad_1451" data-name="Pfad 1451" d="M333.021,195.708a32.253,32.253,0,0,0-7.345-4.851q-4.029-2.183-8.142-4.206-4.6-2.259-9.294-4.295,4.178-11.961,8.231-23.964,5.354-15.856,10.577-31.755,1.725-5.236,3.455-10.471a12.163,12.163,0,0,0,1.022-3.892c0-.216-.028-.437-.047-.652-.009-.1-.009-.2-.022-.295,0-.026-.005-.044-.009-.067a7.511,7.511,0,0,0,.129-.756c.022-.123.042-.24.061-.356a1.372,1.372,0,0,0-2.068-1.63,3.938,3.938,0,0,0-.363.436.043.043,0,0,0,.018.006c-.039.046-.082.09-.119.141a5.337,5.337,0,0,0-.306.549c-.072.134-.148.267-.217.4-.03.061-.064.121-.1.181a.222.222,0,0,0-.029.012,4.739,4.739,0,0,0-1.316,1.845c-1.082,2.829-1.935,5.77-2.891,8.644q-4.943,14.874-9.945,29.727-5.1,15.069-10.318,30.1-1.506-.62-3.018-1.221-7.674-3.037-15.582-5.424,1.43-3.189,2.861-6.376a25.173,25.173,0,0,0,2.1-5.464c.03-.149.066-.3.091-.447.021-.12.044-.219.055-.35a1.431,1.431,0,0,0,.005-.239,3.484,3.484,0,0,0,.025-.672,3.665,3.665,0,0,0-.073-.577,1.158,1.158,0,0,0-.62-1.007c-.006-.005-.013-.011-.017-.011a1.2,1.2,0,0,0-1.3-.009l-.117.09c-.083.057-.165.115-.25.167-.208.161-.435.31-.629.485-.173.156-.515.647-.179.2-.163.214-.326.426-.486.641a19.235,19.235,0,0,0-2.155,3.944q-1.85,4.182-3.689,8.369c-.594-.157-1.189-.313-1.785-.46-.289-.072-5.712-1.382-4.281.384a1.041,1.041,0,0,0,.5.279c1.6.539,3.065,1.29,4.686,1.815q-1.047,2.385-2.09,4.77-3.183,7.29-6.329,14.6-5.4-1.583-10.875-2.936.9-1.893,1.8-3.788,9.074-19.2,17.561-38.679c2.065.693,4.122,1.411,6.164,2.172q5.421,2.021,10.706,4.386c3.472,1.557,6.91,3.577,10.613,4.508.6.152,1.161-.652.642-1.1-3.353-2.9-7.853-4.581-11.888-6.318q-6.266-2.7-12.715-4.944-1.284-.445-2.577-.873,1.15-2.65,2.29-5.306c3.788-8.829,7.382-17.693,10.658-26.723.559-1.54-1.992-2.642-2.672-1.126-4.76,10.614-9.311,21.321-13.935,32-.018.043-5-1.658-5.5-1.748-1.766-.323-3.126.27-4.88.172.035,1.546,1.716,1.3,2.737,1.627,1.844.583,3.7,1.132,5.539,1.713.392.123.782.25,1.173.375q-2.777,6.395-5.618,12.761-6.76,15.08-13.894,29.977-2.648-.629-5.3-1.218c-2.631-.586-5.294-1.048-7.919-1.656-1.314-.3-3.4-1.741-4.714-1.2-4.206,1.739,3.14,3.1,4.138,3.359,2.939.757,5.892,1.446,8.838,2.173q1.907.471,3.812.946-3.219,6.732-6.483,13.445-.96,1.974-1.93,3.943-1.59-.552-3.181-1.1c-3.661-1.254-7.334-2.473-11.034-3.607-3.492-1.071-7.16-2.615-10.839-2.751a.588.588,0,0,0-.294,1.086c2.7,1.84,6.064,2.689,9.117,3.785q4.689,1.683,9.4,3.316,2.769.957,5.53,1.935-1.569,3.189-3.158,6.372c-1.077,2.159-2.134,4.328-3.2,6.494-.533,1.086-1.039,2.182-1.532,3.288a3.424,3.424,0,0,0-.175,2.59.736.736,0,0,0,1.065.434,3.113,3.113,0,0,0,1.817-1.442c.584-.936,1.114-1.908,1.633-2.88,1.041-1.948,2.085-3.894,3.093-5.859q1.986-3.87,3.944-7.754,5,1.8,9.967,3.7.893.342,1.783.69-2.309,5.519-4.587,11.05-1.915,4.65-3.78,9.317-11.921-4.491-24.091-8.272c-6.026-1.886-12.234-4.375-18.532-5.018-.846-.086-1.11,1.176-.422,1.557,4.91,2.72,10.6,4.066,15.911,5.837,5.373,1.792,10.746,3.586,16.091,5.456q4.923,1.722,9.792,3.57-.825,2.072-1.64,4.145-1.729,4.391-3.44,8.789c-.552,1.422-1.108,2.854-1.59,4.3a3.857,3.857,0,0,0,.079,3.456.369.369,0,0,0,.409.167c2.281-.66,2.915-3.517,3.764-5.475,1.09-2.518,2.125-5.06,3.193-7.587q1.363-3.227,2.742-6.445,9.372,3.649,18.554,7.783,1.514.684,3.025,1.381c-1.038,2.43-2.059,4.85-2.986,7.234a3.494,3.494,0,0,0-.449,1.708c.009.062.056.232.1.381a4.274,4.274,0,0,0,.086.745.813.813,0,0,0,1.207.693,3.405,3.405,0,0,0,.551-.309l.039-.036c.043-.017.087-.034.143-.058a3.127,3.127,0,0,0,1.47-1.553c.593-.971,1.151-1.963,1.7-2.959.72-1.308,1.358-2.671,1.975-4.041q.988.476,1.973.961c2.836,1.4,5.555,3.061,8.515,4.182,1,.38,1.915-1.158,1.069-1.837a46.008,46.008,0,0,0-7.091-4.34q-1.613-.872-3.23-1.731c2.366-5.254,4.569-10.583,6.725-15.926q.858-2.123,1.7-4.254,2.975,1.53,5.908,3.145c6.589,3.643,12.718,7.914,19.108,11.869,1.328.823,2.953-1.173,1.7-2.209-5.137-4.264-11.055-7.718-16.841-11.02q-4.312-2.46-8.732-4.716c2.681-6.883,5.255-13.808,7.775-20.752q2.178,1.091,4.314,2.264,4.475,2.469,8.711,5.338,2.012,1.369,3.957,2.837c1.356,1.025,2.609,2.271,4.263,2.76a.911.911,0,0,0,1.018-1.323,9.576,9.576,0,0,0-3.043-3.078q-1.961-1.517-3.995-2.939c-2.653-1.853-5.4-3.577-8.208-5.182q-3-1.711-6.09-3.242,1.34-3.711,2.668-7.425,2.238-6.267,4.435-12.548,5.488,2.427,10.857,5.117,3.584,1.8,7.106,3.716a37.171,37.171,0,0,0,6.959,3.249.787.787,0,0,0,.759-1.305m-1.5-85.348c.053-.115.1-.124,0,0m0-.014,0,.02c-.035.043-.086.1-.159.175a1.444,1.444,0,0,0,.162-.195m-41.306,50.271c.01-.019.023-.032.034-.051.073-.143.091-.1-.034.051m-39.205,50.6c.145-.287.291-.573.435-.859q4.2-8.365,8.223-16.812c3.372.864,6.736,1.76,10.078,2.728.3.086.593.174.887.261q-4.061,9.453-8.044,18.937-5.76-2.205-11.579-4.255m28.705,34.422c-.513,1.237-1.039,2.477-1.569,3.717-.188-.094-.374-.19-.56-.283-5.181-2.577-10.494-4.867-15.856-7.038q-2.538-1.029-5.1-2.015,1.2-2.811,2.393-5.622,3.1-7.31,6.228-14.6c7.112,2.85,14.146,5.914,21.023,9.29-2.138,5.538-4.285,11.071-6.562,16.554m7.687-19.485q-2.589-1.265-5.208-2.474c-5.176-2.387-10.427-4.6-15.729-6.7q2.275-5.28,4.562-10.553,1.878-4.32,3.77-8.633a172.414,172.414,0,0,1,20.329,7.67q-3.779,10.376-7.724,20.689m13.5-36.8q-2.4,6.792-4.852,13.564-3.311-1.5-6.691-2.846c-4.427-1.761-8.927-3.332-13.475-4.759q4.229-9.621,8.519-19.212c1.534.512,3.068,1.029,4.591,1.571,4.744,1.688,9.454,3.492,14.1,5.438q-1.092,3.123-2.189,6.244" fill="#dba179"/>
  </g>
</svg>
