<svg xmlns="http://www.w3.org/2000/svg" width="302.752" height="54.248" viewBox="0 0 302.752 54.248">
  <g id="Gruppe_1370" data-name="Gruppe 1370" transform="translate(-376.117 -329.416)">
    <path id="Pfad_1460" data-name="Pfad 1460" d="M454.841,404.693c5.138,2.721,5.824,8.269,6.928,13.039.289,1.743,1.737,1.921,3.542,1.1l23.656-10.021a35.923,35.923,0,0,1,.218,10.936l10.142-11.868a12.982,12.982,0,0,0,12.115,1.306c-.725,2.365-.621,5.785,2.458,6.157a6.909,6.909,0,0,0,2.621-.349q4.377-1.2,8.57-2.763c-1.945,3.739,5.089,5.856,8.6,4.64,1.9-.659,3.313-1.782,5.388-2.371a61.747,61.747,0,0,1,8.568-1.749l1.588,3.286c3.711-2.346,8.335-4.839,12.866-3.663a18.811,18.811,0,0,1,3.961,1.758,55.126,55.126,0,0,0,29.817,5.64c2.845-.254,5.853-.8,7.805-2.441s2.183-4.654-.2-5.892c-2.476-1.285-5.948.113-7.537,2.075a4.289,4.289,0,0,0-1.124,2.843c.172,3.068,4.978,4.577,8.91,4.533,5.1-.058,10-1.423,14.932-2.42,34.028-6.874,70.724,3.683,104.92-2.664" transform="translate(-44.761 -42.82)" fill="none" stroke="#fff" stroke-miterlimit="10" stroke-width="0.5"/>
    <path id="Pfad_1461" data-name="Pfad 1461" d="M413.169,330.594c1.007,19.357-9.186,38.895-27.52,52.75a28.909,28.909,0,0,1-8.184-10.9c-1.888-4.582-1.691-10.418,3.646-13.139,3.953-2.016,9.2-1.563,14-1.588,8.083-.041,15.979-1.664,23.762-3.275,26.414-5.089,51.963-11.633,75.012-24.812" fill="none" stroke="#fff" stroke-miterlimit="10" stroke-width="0.5"/>
  </g>
</svg>
