<svg xmlns="http://www.w3.org/2000/svg" width="43.647" height="43.647" viewBox="0 0 43.647 43.647">
  <g id="Gruppe_1440" data-name="Gruppe 1440" transform="translate(-410.803 -10438.25)">
    <g id="Icon-instagram-zahnarzt" transform="translate(411.553 10439)">
      <ellipse id="Ellipse_56" data-name="Ellipse 56" cx="21.073" cy="21.074" rx="21.073" ry="21.074" transform="translate(0 0)" fill="none" stroke="#e74a3f" stroke-miterlimit="10" stroke-width="1.5"/>
    </g>
    <path id="Pfad_1486" data-name="Pfad 1486" d="M22.585,6.747a7.066,7.066,0,0,1-3.716-5.022h.006A4.227,4.227,0,0,1,18.809.5H13.793V19.9c0,.312,0,.615-.019.921-.306,5.32-8.591,4.962-8.432-.378a4.255,4.255,0,0,1,5.516-4.006l.006-5.108C1.48,9.8-3.506,23.1,4.5,28.165v-.012a9.257,9.257,0,0,0,13.706-4.4c1.081-2.158.448-11.074.608-13.487a12.332,12.332,0,0,0,6.922,2.228V7.514a6.5,6.5,0,0,1-3.153-.767" transform="translate(419.507 10444.478)" fill="none" stroke="#e74a3f" stroke-linejoin="round" stroke-width="1.5"/>
  </g>
</svg>
