<svg xmlns="http://www.w3.org/2000/svg" width="45.041" height="53.834" viewBox="0 0 45.041 53.834">
  <g id="Gruppe_1596" data-name="Gruppe 1596" transform="translate(0.514 0.503)">
    <g id="Gruppe_1540" data-name="Gruppe 1540" transform="translate(0 0)">
      <g id="Gruppe_1525" data-name="Gruppe 1525" transform="translate(0 0)">
        <path id="Pfad_200" data-name="Pfad 200" d="M21.2,52.832a.164.164,0,0,1-.121-.049l-1.422-1.371-1.917.4a.183.183,0,0,1-.11-.011l-2.495-1.073-2.146-.7L12.279,51.1a.17.17,0,0,1-.14.071H7.607a.155.155,0,0,1-.163-.143L7.359,47.68a.157.157,0,0,1,.011-.054l1.278-3.047,1.68-2.665L3.4,40.02a.164.164,0,0,1-.068-.038L1.282,38.165a.132.132,0,0,1-.042-.145l.616-1.846L.048,33.8a.136.136,0,0,1,.028-.193L1.5,32.5l.65-.579L.057,27.678a.139.139,0,0,1,0-.113L1.3,24.714.012,21.925a.141.141,0,0,1,.089-.19.189.189,0,0,1,.063-.011h3.6l1.951-2.245-1.587-2.4a.135.135,0,0,1,.057-.2l0,0a.162.162,0,0,1,.08-.019H5.59l1.291-4.455H5.673a.157.157,0,0,1-.165-.147l0-.03.516-2.3a.157.157,0,0,1,.148-.116l4.211-.293a.162.162,0,0,1,.167.1l.791,1.989,2.118-3.069a.169.169,0,0,1,.14-.069h2.433l.209-.041-.093-.278-1.64-.575a.17.17,0,0,1-.091-.079L13.71,6.008,12.9,5.253a.132.132,0,0,1,0-.2v0l.034-.021,1.257-.635-.353-1.1-1.9-.648c-.072.051-.273-.09-.269-.13L11.994.129A.16.16,0,0,1,12.176,0,.162.162,0,0,1,12.3.08l2.034.98.059.009,1.987.687.639-.368a.191.191,0,0,1,.129-.019l2.161.464a.166.166,0,0,1,.1.056l.609.749a.136.136,0,0,1,0,.171l-.995,1.221,1.05-.083a.2.2,0,0,1,.076.009l2.687.967L24.44,3.439a.179.179,0,0,1,.233,0l.015.013,1.064,1.191a.134.134,0,0,1,.013.163.176.176,0,0,1-.165.071l-.518-.064L24.7,6.282a.138.138,0,0,1-.066.085l-1.141.746v.5l.918-.5a.18.18,0,0,1,.135-.015l1.342.368.673-1.08a.16.16,0,0,1,.127-.075l1.587-.154,2.116-2.474a.172.172,0,0,1,.148-.056l1.674.163,1.134.27.9-2.044a.163.163,0,0,1,.148-.094.153.153,0,0,1,.152.086l1.469,2.849a.138.138,0,0,1-.057.18L34.94,5.67l.326.359,1.507-.239a.184.184,0,0,1,.138.034l1.545,1.221a.134.134,0,0,1,.015.207l-1,1.011,1.746.6a.155.155,0,0,1,.1.085l1.225,2.9a.135.135,0,0,1-.011.124l-1.414,2.245,1.667,1.029a.142.142,0,0,1,.07.107l.161,1.726.868,2.442a.152.152,0,0,1,.008.053l-.154,2.111,2.262,2.562a.137.137,0,0,1,.036.09v2.6a.147.147,0,0,1-.025.077l-1.067,1.5a.18.18,0,0,1-.144.069.176.176,0,0,1-.142-.077l-1.037-1.721-.413.687a.2.2,0,0,1-.068.06l-7.011,3.326-3.83,1.86,2.23,1.422a.146.146,0,0,1,.066.1l.546,3.255,6.147,4.055a.141.141,0,0,1,.066.118v2.149a.148.148,0,0,1-.089.131l-1.926.855-2.548,2.194,1.06,2.7.008.049V51.51a.154.154,0,0,1-.163.147.17.17,0,0,1-.074-.017l-3.76-1.7-5.8,2.855a.183.183,0,0,1-.165,0l-2.666-1.42L21.3,52.8a.184.184,0,0,1-.1.036M12.377,1.286l-.063.473.279-.2a.189.189,0,0,1,.063-.028h-.04a.17.17,0,0,1-.148-.081Z" transform="translate(0 0)" fill="none" stroke="#122253" stroke-width="1"/>
      </g>
    </g>
    <g id="Gruppe_1582" data-name="Gruppe 1582" transform="translate(27.788 15.7)">
      <line id="Linie_227" data-name="Linie 227" x2="7.824" y2="7.824" transform="translate(0 0.001)" fill="none" stroke="#de322f" stroke-width="1"/>
      <line id="Linie_228" data-name="Linie 228" x1="7.824" y2="7.824" transform="translate(0 0)" fill="none" stroke="#de322f" stroke-width="1"/>
    </g>
  </g>
</svg>
