<svg xmlns="http://www.w3.org/2000/svg" width="51.356" height="42.6" viewBox="0 0 51.356 42.6">
  <g id="Gruppe_1599" data-name="Gruppe 1599" transform="translate(0.5 0.5)">
    <g id="Gruppe_1552" data-name="Gruppe 1552" transform="translate(0)">
      <g id="Gruppe_1551" data-name="Gruppe 1551" transform="translate(0 0)">
        <g id="Gruppe_1591" data-name="Gruppe 1591" transform="translate(0 0)">
          <path id="Pfad_1574" data-name="Pfad 1574" d="M11.545,3.912A3.734,3.734,0,0,1,7.768,7.606,3.735,3.735,0,0,1,3.986,3.912,3.739,3.739,0,0,1,7.768.219,3.738,3.738,0,0,1,11.545,3.912Z" transform="translate(17.412 -0.219)" fill="none" stroke="#122253" stroke-miterlimit="10" stroke-width="1"/>
          <path id="Pfad_1575" data-name="Pfad 1575" d="M14.114,7.01H3.738A5.133,5.133,0,0,1,8.929,1.934,5.132,5.132,0,0,1,14.114,7.01Z" transform="translate(16.252 7.591)" fill="none" stroke="#122253" stroke-miterlimit="10" stroke-width="1"/>
          <path id="Pfad_1576" data-name="Pfad 1576" d="M8.025,8.772a3.738,3.738,0,0,1-3.777,3.693,3.694,3.694,0,1,1,0-7.387A3.734,3.734,0,0,1,8.025,8.772Z" transform="translate(0.942 21.913)" fill="none" stroke="#122253" stroke-miterlimit="10" stroke-width="1"/>
          <path id="Pfad_1577" data-name="Pfad 1577" d="M10.594,11.871H.218A5.133,5.133,0,0,1,5.409,6.8,5.132,5.132,0,0,1,10.594,11.871Z" transform="translate(-0.218 29.728)" fill="none" stroke="#122253" stroke-miterlimit="10" stroke-width="1"/>
          <path id="Pfad_1578" data-name="Pfad 1578" d="M15.065,8.772a3.78,3.78,0,0,1-7.559,0,3.78,3.78,0,0,1,7.559,0Z" transform="translate(33.883 21.913)" fill="none" stroke="#122253" stroke-miterlimit="10" stroke-width="1"/>
          <path id="Pfad_1579" data-name="Pfad 1579" d="M17.634,11.871H7.258a5.189,5.189,0,0,1,10.376,0Z" transform="translate(32.722 29.728)" fill="none" stroke="#122253" stroke-miterlimit="10" stroke-width="1"/>
          <line id="Linie_215" data-name="Linie 215" y1="6.581" x2="9.524" transform="translate(15.691 26.678)" fill="none" stroke="#e74a3f" stroke-miterlimit="10" stroke-width="1"/>
          <line id="Linie_216" data-name="Linie 216" x1="9.524" y1="6.581" transform="translate(25.214 26.678)" fill="none" stroke="#e74a3f" stroke-miterlimit="10" stroke-width="1"/>
          <line id="Linie_217" data-name="Linie 217" y2="6.954" transform="translate(25.214 19.724)" fill="none" stroke="#e74a3f" stroke-miterlimit="10" stroke-width="1"/>
        </g>
      </g>
    </g>
  </g>
</svg>
