<svg xmlns="http://www.w3.org/2000/svg" width="47.304" height="52.163" viewBox="0 0 47.304 52.163">
  <g id="Gruppe_1597" data-name="Gruppe 1597" transform="translate(0.504 0.5)">
    <g id="Gruppe_1577" data-name="Gruppe 1577" transform="translate(0)">
      <g id="Gruppe_1574" data-name="Gruppe 1574" transform="translate(0 0)">
        <g id="Gruppe_1589" data-name="Gruppe 1589" transform="translate(0 0)">
          <path id="Pfad_1601" data-name="Pfad 1601" d="M42.154,44.191H4.891A4.474,4.474,0,0,1,.407,39.222L4.329,6.375H42.716l3.922,32.847A4.474,4.474,0,0,1,42.154,44.191Z" transform="translate(-0.375 6.972)" fill="none" stroke="#122253" stroke-linecap="round" stroke-linejoin="round" stroke-width="1"/>
          <path id="Pfad_1602" data-name="Pfad 1602" d="M6.126,18.171V10.385a10.163,10.163,0,0,1,20.323,0v7.786" transform="translate(6.86 -0.375)" fill="none" stroke="#122253" stroke-linecap="round" stroke-linejoin="round" stroke-width="1"/>
        </g>
      </g>
      <g id="Gruppe_1576" data-name="Gruppe 1576" transform="translate(13.462 22.69)">
        <g id="Gruppe_1588" data-name="Gruppe 1588" transform="translate(0 0)">
          <path id="Pfad_1603" data-name="Pfad 1603" d="M10.061.375,12.7,8.3h7.044l-5.283,4.4,2.642,7.925-7.044-5.283L3.017,20.627,5.658,12.7.375,8.3H7.419Z" transform="translate(-0.375 -0.375)" fill="none" stroke="#e74a3f" stroke-linecap="round" stroke-linejoin="round" stroke-width="1"/>
        </g>
      </g>
    </g>
  </g>
</svg>
