<svg xmlns="http://www.w3.org/2000/svg" width="51.632" height="51.632" viewBox="0 0 51.632 51.632">
  <g id="Gruppe_1598" data-name="Gruppe 1598" transform="translate(0.5 0.5)">
    <g id="Gruppe_1555" data-name="Gruppe 1555" transform="translate(0 0)">
      <g id="Gruppe_1554" data-name="Gruppe 1554" transform="translate(0 0)">
        <g id="Gruppe_1590" data-name="Gruppe 1590" transform="translate(0 0)">
          <path id="Pfad_1580" data-name="Pfad 1580" d="M3.629,3.176A29.3,29.3,0,0,1,10.854,1.6a17.915,17.915,0,0,1,8.974,1.588" transform="translate(13.452 5.176)" fill="none" stroke="#122253" stroke-miterlimit="10" stroke-width="1"/>
          <path id="Pfad_1581" data-name="Pfad 1581" d="M2.8,6.065A22.689,22.689,0,0,1,10.5,2.573a24,24,0,0,1,9.5.08A23.772,23.772,0,0,1,27.589,6.08" transform="translate(10.115 7.484)" fill="none" stroke="#122253" stroke-miterlimit="10" stroke-width="1"/>
          <path id="Pfad_1582" data-name="Pfad 1582" d="M2.2,12.4A17.9,17.9,0,0,1,8.172,5.905a18.113,18.113,0,0,1,7.11-2.39,17.121,17.121,0,0,1,11.544,2.41,17.12,17.12,0,0,1,5.862,7.285" transform="translate(7.717 12.348)" fill="none" stroke="#122253" stroke-miterlimit="10" stroke-width="1"/>
          <path id="Pfad_1583" data-name="Pfad 1583" d="M2.069,10.761A18.173,18.173,0,0,1,7.43,5.605a20.452,20.452,0,0,1,8.057-2.7A19.319,19.319,0,0,1,28.555,5.63a17.641,17.641,0,0,1,5.607,6.233" transform="translate(7.196 9.792)" fill="none" stroke="#122253" stroke-miterlimit="10" stroke-width="1"/>
          <path id="Pfad_1584" data-name="Pfad 1584" d="M2.392,14.937A14.532,14.532,0,0,1,5.559,8.428a13.77,13.77,0,0,1,7.526-4.1A15.918,15.918,0,0,1,25.3,7.09c4.86,3.713,5.672,9.515,5.807,10.542" transform="translate(8.491 15.052)" fill="none" stroke="#122253" stroke-miterlimit="10" stroke-width="1"/>
          <path id="Pfad_1585" data-name="Pfad 1585" d="M2.993,18.565c-.115-.732-.772-5.907,2.545-9.826a11.793,11.793,0,0,1,7.556-3.968A12.548,12.548,0,0,1,21.613,6.85c3.918,2.781,5.812,8.393,4.9,13.629" transform="translate(10.385 17.697)" fill="none" stroke="#122253" stroke-miterlimit="10" stroke-width="1"/>
          <path id="Pfad_1586" data-name="Pfad 1586" d="M4.007,20a14.919,14.919,0,0,1-.23-7.486,9.481,9.481,0,0,1,3.2-5.607c2.946-2.215,7.26-1.764,9.986-.18,4.154,2.41,6.143,8.338,4.284,14.335" transform="translate(12.533 20.517)" fill="none" stroke="#122253" stroke-miterlimit="10" stroke-width="1"/>
          <path id="Pfad_1587" data-name="Pfad 1587" d="M4.944,19.316c-.13-.306-2.636-6.544.842-10.663.351-.416,2.44-2.671,4.94-2.55,4.88.241,5.381,4.169,5.642,5.256a18.786,18.786,0,0,1,.14,9.179" transform="translate(14.738 23.36)" fill="none" stroke="#122253" stroke-miterlimit="10" stroke-width="1"/>
          <path id="Pfad_1589" data-name="Pfad 1589" d="M50.852,25.538A25.316,25.316,0,1,1,25.539.219,25.314,25.314,0,0,1,50.852,25.538Z" transform="translate(-0.22 -0.219)" fill="none" stroke="#122253" stroke-miterlimit="10" stroke-width="1"/>
        </g>
      </g>
    </g>
    <g id="Gruppe_1583" data-name="Gruppe 1583" transform="translate(22.533 35.987)">
      <line id="Linie_227" data-name="Linie 227" x2="5.563" y2="5.563" transform="translate(0 0.001)" fill="none" stroke="#de322f" stroke-width="1"/>
      <line id="Linie_228" data-name="Linie 228" x1="5.563" y2="5.563" transform="translate(0 0)" fill="none" stroke="#de322f" stroke-width="1"/>
    </g>
  </g>
</svg>
