<svg xmlns="http://www.w3.org/2000/svg" xmlns:xlink="http://www.w3.org/1999/xlink" width="31.698" height="54.013" viewBox="0 0 31.698 54.013">
  <defs>
    <clipPath id="clip-path">
      <rect id="Rechteck_701" data-name="Rechteck 701" width="31.698" height="54.013" transform="translate(0 0)" fill="rgba(0,0,0,0)"/>
    </clipPath>
  </defs>
  <g id="Gruppe_1439" data-name="Gruppe 1439" transform="translate(0 0)">
    <g id="Gruppe_1436" data-name="Gruppe 1436">
      <g id="Gruppe_1435" data-name="Gruppe 1435" clip-path="url(#clip-path)">
        <path id="Pfad_1483" data-name="Pfad 1483" d="M26.662,30.752l.753.738a5.377,5.377,0,0,1-4.049,1.617,5.539,5.539,0,0,1-5.572-4.16H15.973v-.69h1.695a5.81,5.81,0,0,1,0-1.475H15.973V26.09h1.821a5.538,5.538,0,0,1,5.572-4.159,5.366,5.366,0,0,1,4.049,1.6l-.753.738a4.343,4.343,0,0,0-3.233-1.3A4.483,4.483,0,0,0,19,26.09h5.384v.692H18.83a5.81,5.81,0,0,0,0,1.475h5.556v.69H19a4.484,4.484,0,0,0,4.427,3.124,4.294,4.294,0,0,0,3.233-1.319" fill="#031a41"/>
      </g>
    </g>
    <line id="Linie_168" data-name="Linie 168" x1="9.914" y1="9.914" transform="translate(4.541 22.562)" fill="none" stroke="#de322f" stroke-width="1"/>
    <line id="Linie_169" data-name="Linie 169" y1="9.914" x2="9.914" transform="translate(4.541 22.564)" fill="none" stroke="#de322f" stroke-width="1"/>
    <path id="Pfad_1484" data-name="Pfad 1484" d="M15.849,26.4h0Z" fill="#031a41"/>
    <line id="Linie_170" data-name="Linie 170" x2="8.537" transform="translate(15.849 26.402)" fill="none" stroke="#031a41" stroke-miterlimit="10" stroke-width="1"/>
    <path id="Pfad_1485" data-name="Pfad 1485" d="M15.849,28.647h0Z" fill="#031a41"/>
    <line id="Linie_171" data-name="Linie 171" x2="8.537" transform="translate(15.849 28.647)" fill="none" stroke="#031a41" stroke-miterlimit="10" stroke-width="1"/>
    <g id="Gruppe_1438" data-name="Gruppe 1438">
      <g id="Gruppe_1437" data-name="Gruppe 1437" clip-path="url(#clip-path)">
        <rect id="Rechteck_702" data-name="Rechteck 702" width="30.698" height="53.013" rx="4.851" transform="translate(0.5 0.5)" fill="rgba(0,0,0,0)" stroke="#031a41" stroke-miterlimit="10" stroke-width="1"/>
        <line id="Linie_172" data-name="Linie 172" x2="30.698" transform="translate(0.5 8.39)" fill="none" stroke="#031a41" stroke-miterlimit="10" stroke-width="1"/>
        <line id="Linie_173" data-name="Linie 173" x2="30.698" transform="translate(0.5 44.389)" fill="none" stroke="#031a41" stroke-miterlimit="10" stroke-width="1"/>
        <line id="Linie_174" data-name="Linie 174" x2="5.351" transform="translate(13.174 48.982)" fill="none" stroke="#031a41" stroke-miterlimit="10" stroke-width="1"/>
        <line id="Linie_175" data-name="Linie 175" x2="10.863" transform="translate(10.417 4.229)" fill="none" stroke="#031a41" stroke-miterlimit="10" stroke-width="1"/>
      </g>
    </g>
  </g>
</svg>
