<?xml version="1.0" encoding="utf-8"?>
<!-- Generator: Adobe Illustrator 16.0.0, SVG Export Plug-In . SVG Version: 6.00 Build 0)  -->
<!DOCTYPE svg PUBLIC "-//W3C//DTD SVG 1.1//EN" "http://www.w3.org/Graphics/SVG/1.1/DTD/svg11.dtd">
<svg version="1.1" id="Ebene_1" xmlns="http://www.w3.org/2000/svg" xmlns:xlink="http://www.w3.org/1999/xlink" x="0px" y="0px"
	 width="170.666px" height="44.5px" viewBox="0 0 170.666 44.5" enable-background="new 0 0 170.666 44.5" xml:space="preserve">
<path fill="#1D1D1B" d="M27.583,22.128V34h-5.118v-9.825c0-2.046-0.82-3.274-2.866-3.274c-2.047,0-3.068,1.435-3.068,3.274V34
	h-5.116v-9.825c0-2.046-0.819-3.274-2.866-3.274c-1.64,0-3.071,1.633-3.071,3.274V34H0.365V16.807h5.114v1.64h0.082
	c1.351-1.64,3.235-2.254,5.445-2.254c2.21,0,3.684,1.025,4.501,2.665c2.045-2.05,3.687-2.665,6.138-2.665
	C25.331,16.192,27.583,18.857,27.583,22.128z M46.149,16.807h5.117V34h-5.117v-1.635h-0.082c-1.352,1.635-3.396,2.248-5.853,2.248
	c-4.093,0-7.778-3.479-7.778-9.21c0-5.729,3.685-9.211,7.778-9.211c2.457,0,4.502,0.614,5.853,2.254h0.082V16.807z M46.149,25.403
	c0-2.866-1.842-4.502-4.296-4.502c-2.048,0-4.096,1.633-4.096,4.502c0,2.868,2.048,4.503,4.096,4.503
	C44.307,29.906,46.149,28.271,46.149,25.403z M127.677,26.224c0,2.048-1.432,3.683-3.477,3.683c-2.459,0-3.275-1.231-3.275-3.683
	v-9.417h-5.117v11.052c0,4.507,2.252,6.755,6.264,6.755c2.129,0,4.174-0.614,5.523-2.248h0.082v1.634h5.117V16.807h-5.117V26.224
	L127.677,26.224z M170.302,16.807v16.374c0,6.549-2.887,9.393-9.416,9.883c-3.156,0.239-6.115-0.591-8.068-1.926v-4.795
	c2.156,1.709,4.533,2.315,7.367,2.154c3.365-0.198,4.998-2.449,4.998-5.316v-0.815h-0.084c-1.35,1.635-3.393,2.248-5.852,2.248
	c-4.096,0-7.781-3.479-7.781-9.21c0-5.729,3.686-9.211,7.781-9.211c2.459,0,4.502,0.614,5.852,2.254h0.084v-1.64H170.302
	L170.302,16.807z M165.187,25.403c0-2.866-1.846-4.502-4.301-4.502c-2.049,0-4.094,1.633-4.094,4.502
	c0,2.868,2.045,4.503,4.094,4.503C163.341,29.906,165.187,28.271,165.187,25.403z M57.01,16.8v17.193h5.118c0,0,0-11.504,0-12.541
	h5.134V16.8H57.01L57.01,16.8z M87.45,16.807h-5.671l-4.623,6.422h-0.082V1.396h-5.117V34h5.117v-7.095h0.082L82.83,34h6.042
	l-7.313-9.146L87.45,16.807z M111.36,25.403c0,5.73-3.68,9.21-7.775,9.21c-2.455,0-4.502-0.614-5.85-2.248h-0.084v1.634h-5.115
	V1.396h5.115v17.051h0.084c1.348-1.64,3.396-2.254,5.85-2.254C107.681,16.192,111.36,19.675,111.36,25.403z M106.04,25.403
	c0-2.866-2.049-4.502-4.094-4.502c-2.455,0-4.297,1.633-4.297,4.502c0,2.868,1.842,4.503,4.297,4.503
	C103.995,29.906,106.04,28.271,106.04,25.403z M87.388,1.396h-5.146v5.147h5.146V1.396z M138.335,16.8v17.193h5.117
	c0,0,0-11.504,0-12.541h5.137V16.8H138.335L138.335,16.8z"/>
</svg>
